<svg width="256" height="94" viewBox="0 0 256 94" fill="none" xmlns="http://www.w3.org/2000/svg">
<rect x="5" y="5" width="246" height="84" rx="11" stroke="#F3F3F3" stroke-width="10"/>
<path d="M51.5146 40.9004L66.1436 23.127H79.0977V70.5H64.8105V43.0537L51.9248 58.9473H50.7969L37.877 43.0537V70.5H24V23.127H36.9541L51.5146 40.9004ZM110.053 70.5H92.7324V51L110.053 70.5ZM154.053 70.5H136.732V51L154.053 70.5ZM198.053 70.5H180.732V51L198.053 70.5ZM123.562 41.1973L123.562 52.8945V64.5928L104.053 47.0449L123.562 29.5V41.1973ZM166.562 41.1973L166.562 52.8945V64.5928L147.053 47.0449L166.562 29.5V41.1973ZM211.562 41.1973H232.253V52.8945H211.562V64.5928L192.053 47.0449L211.562 29.5V41.1973ZM92.7324 42.5V23H110.053L92.7324 42.5ZM136.732 42.5V23H154.053L136.732 42.5ZM180.732 42.5V23H198.053L180.732 42.5Z" fill="#F3F3F3"/>
</svg>
